<svg width="118" height="105" viewBox="0 0 118 105" fill="none" xmlns="http://www.w3.org/2000/svg">
<path d="M1.5 50.0775L33.4728 67.8511L65.4456 50.0775L33.4728 32L1.5 50.0775Z" stroke="#5C7F61" stroke-width="0.75"/>
<path d="M65.4454 86.0799L33.4727 104.006V67.8503" stroke="#5C7F61" stroke-width="0.75"/>
<path d="M65.5 86.3193V50.1646" stroke="#5C7F61" stroke-width="0.75"/>
<path d="M33.4728 104.006L1.5 86.08V50.0768" stroke="#5C7F61" stroke-width="0.75"/>
<path d="M97.22 33.68C99.46 33.68 101.08 33.26 102.08 32.42C103.12 31.54 103.64 30.46 103.64 29.18V28.76C103.64 27.24 103.14 26.02 102.14 25.1C101.18 24.18 99.8 23.72 98 23.72C96.32 23.72 94.74 24.16 93.26 25.04C91.78 25.88 90.52 27.1 89.48 28.7L83.84 23.42C84.64 22.38 85.5 21.44 86.42 20.6C87.34 19.72 88.38 18.98 89.54 18.38C90.7 17.74 92 17.26 93.44 16.94C94.88 16.58 96.5 16.4 98.3 16.4C100.54 16.4 102.56 16.66 104.36 17.18C106.2 17.7 107.76 18.46 109.04 19.46C110.36 20.42 111.36 21.58 112.04 22.94C112.76 24.3 113.12 25.82 113.12 27.5C113.12 28.82 112.9 30.02 112.46 31.1C112.06 32.18 111.48 33.12 110.72 33.92C110 34.72 109.16 35.38 108.2 35.9C107.24 36.38 106.22 36.72 105.14 36.92V37.28C106.38 37.52 107.52 37.92 108.56 38.48C109.64 39 110.56 39.68 111.32 40.52C112.12 41.36 112.74 42.36 113.18 43.52C113.62 44.64 113.84 45.92 113.84 47.36C113.84 49.24 113.46 50.94 112.7 52.46C111.94 53.98 110.86 55.28 109.46 56.36C108.06 57.44 106.38 58.28 104.42 58.88C102.46 59.44 100.3 59.72 97.94 59.72C95.82 59.72 93.94 59.5 92.3 59.06C90.66 58.62 89.22 58.04 87.98 57.32C86.78 56.56 85.72 55.7 84.8 54.74C83.92 53.78 83.14 52.76 82.46 51.68L89.12 46.52C90.04 48.24 91.16 49.66 92.48 50.78C93.84 51.86 95.66 52.4 97.94 52.4C99.98 52.4 101.56 51.9 102.68 50.9C103.84 49.86 104.42 48.46 104.42 46.7V46.34C104.42 44.62 103.76 43.34 102.44 42.5C101.16 41.62 99.38 41.18 97.1 41.18H93.32V33.68H97.22Z" fill="url(#paint0_linear)"/>
<defs>
<linearGradient id="paint0_linear" x1="99.5" y1="17" x2="99.5" y2="59" gradientUnits="userSpaceOnUse">
<stop stop-color="#5C7F61"/>
<stop offset="1" stop-color="#CEE4D1"/>
</linearGradient>
</defs>
</svg>
